<svg id="AngryExpression" xmlns="http://www.w3.org/2000/svg" width="115" height="180.48" viewBox="0 0 115 118.07">
  <defs>
    <style>
      .cls-1, .cls-2, .cls-5 {
        fill: #231f20;
      }

      .cls-2, .cls-3, .cls-5 {
        stroke: #231f20;
      }

      .cls-2, .cls-3, .cls-4, .cls-5, .cls-8 {
        stroke-miterlimit: 10;
      }

      .cls-3, .cls-6 {
        fill: #fff;
      }

      .cls-4, .cls-8 {
        fill: none;
      }

      .cls-4 {
        stroke: #fff;
      }

      .cls-4, .cls-5 {
        stroke-width: 3px;
      }

      .cls-7 {
        fill: #ed1c24;
      }

      .cls-8 {
        stroke: #ed1c24;
      }
    </style>
  </defs>
  <g id="AngryHair">
    <path class="cls-1" d="M90.2,21.78c-1.11.56-2.78-1.14-6.11-4.54C79.34,12.39,76,9,76.71,5.5s5.62-6.39,9-5.24C92.39,2.52,93.23,20.25,90.2,21.78Z"/>
    <path class="cls-1" d="M89.86,21.93c-1.1-.56-.69-2.93.13-7.65,1.18-6.74,2-11.51,5.3-13s8.55.73,9.6,4.16C107,12.2,92.91,23.47,89.86,21.93Z"/>
  </g>
  <g id="Angry">
    <ellipse class="cls-2" cx="57.5" cy="64.07" rx="57" ry="53.5"/>
    <circle class="cls-3" cx="32.39" cy="60.57" r="17"/>
    <circle class="cls-3" cx="81.33" cy="60.57" r="17"/>
    <line class="cls-4" x1="21.47" y1="31.66" x2="43.31" y2="43.57"/>
    <line class="cls-4" x1="87.91" y1="28.83" x2="68.62" y2="44.53"/>
    <circle class="cls-5" cx="32.6" cy="61.2" r="8.8"/>
    <circle class="cls-5" cx="82.05" cy="61.2" r="8.8"/>
    <circle class="cls-6" cx="88.98" cy="68.49" r="3.34"/>
    <circle class="cls-6" cx="77.12" cy="51.28" r="3.34"/>
    <circle class="cls-6" cx="27.14" cy="52.72" r="3.34"/>
    <circle class="cls-6" cx="39.2" cy="68.49" r="3.34"/>
    <circle class="cls-7" cx="29.97" cy="89.44" r="6.17"/>
    <circle class="cls-7" cx="82.05" cy="89.44" r="6.17"/>
    <line class="cls-4" x1="39.2" y1="96.25" x2="74.21" y2="96.25"/>
    <g>
      <path class="cls-8" d="M104.07,24a6,6,0,0,1-6.47,7.55"/>
      <path class="cls-8" d="M112.8,31.63a6.31,6.31,0,0,1-5.15-2.23,6.26,6.26,0,0,1-1.06-5.53"/>
      <path class="cls-8" d="M106.43,40.33A6,6,0,0,1,114.09,34"/>
      <path class="cls-8" d="M97,34.36a6,6,0,0,1,7.69,6.29"/>
    </g>
  </g>
</svg>
