<svg id="DaydreamExpression" xmlns="http://www.w3.org/2000/svg" width="115" height="145.48" viewBox="0 0 115 145.48">
  <defs>
    <style>
      .cls-1, .cls-4 {
        fill: #231f20;
      }

      .cls-1, .cls-2 {
        stroke: #231f20;
      }

      .cls-1, .cls-2, .cls-6 {
        stroke-miterlimit: 10;
      }

      .cls-2, .cls-5 {
        fill: #fff;
      }

      .cls-3 {
        fill: #f2c1da;
      }

      .cls-6 {
        fill: none;
        stroke: #fff;
        stroke-width: 2px;
      }

      .cls-7 {
        fill: #fdf8c1;
      }

      .cls-8 {
        fill: #dbf1fc;
      }
    </style>
  </defs>
  <g id="Daydream">
    <ellipse class="cls-1" cx="57.5" cy="91.48" rx="57" ry="53.5"/>
    <ellipse class="cls-2" cx="32.47" cy="86.33" rx="15.97" ry="15.35"/>
    <ellipse class="cls-3" cx="32.4" cy="90.53" rx="13.97" ry="10.72"/>
    <circle class="cls-4" cx="32.47" cy="77.82" r="9.08"/>
    <circle class="cls-5" cx="24.46" cy="82.75" r="2.94"/>
    <circle class="cls-5" cx="41.55" cy="78.89" r="2.94"/>
    <ellipse class="cls-2" cx="84.47" cy="86.81" rx="15.97" ry="15.35"/>
    <ellipse class="cls-3" cx="84.4" cy="91.02" rx="13.97" ry="10.72"/>
    <circle class="cls-4" cx="84.47" cy="78.31" r="9.08"/>
    <circle class="cls-5" cx="76.46" cy="83.24" r="2.94"/>
    <circle class="cls-5" cx="93.55" cy="79.38" r="2.94"/>
    <g>
      <path class="cls-4" d="M90.42,48.72c-1.1.56-2.77-1.14-6.1-4.54-4.76-4.84-8.13-8.28-7.38-11.74s5.62-6.39,9-5.24C92.62,29.46,93.46,47.19,90.42,48.72Z"/>
      <path class="cls-4" d="M90.09,48.87c-1.11-.56-.69-2.92.13-7.64,1.18-6.75,2-11.52,5.29-13s8.55.73,9.61,4.16C107.19,39.14,93.13,50.41,90.09,48.87Z"/>
    </g>
    <path class="cls-6" d="M46.36,119.56c.3.5,4.4,7.22,12.44,7.59a15.35,15.35,0,0,0,13.87-7.59"/>
    <polygon class="cls-5" points="32.53 82.21 30.76 80.69 28.5 81.29 29.4 79.14 28.13 77.18 30.46 77.36 31.93 75.55 32.47 77.82 34.65 78.67 32.66 79.88 32.53 82.21"/>
    <polygon class="cls-5" points="84.53 82.69 82.76 81.18 80.5 81.78 81.4 79.62 80.13 77.66 82.46 77.85 83.93 76.04 84.47 78.31 86.65 79.15 84.66 80.37 84.53 82.69"/>
    <polygon class="cls-7" points="32.05 117.98 26.32 116.69 22.01 120.68 21.47 114.84 16.34 111.98 21.73 109.65 22.87 103.89 26.75 108.29 32.58 107.6 29.58 112.65 32.05 117.98"/>
    <polygon class="cls-7" points="90.92 122.02 87.11 117.56 81.27 118.17 84.33 113.16 81.95 107.8 87.66 109.17 92.02 105.24 92.48 111.1 97.57 114.03 92.14 116.28 90.92 122.02"/>
    <ellipse class="cls-8" cx="27.41" cy="12.85" rx="14.14" ry="12.85"/>
    <ellipse class="cls-8" cx="11.01" cy="15.19" rx="10.51" ry="9.34"/>
    <circle class="cls-8" cx="44.59" cy="18.91" r="9.95"/>
    <circle class="cls-8" cx="26.54" cy="27.01" r="8.11"/>
    <ellipse class="cls-8" cx="16.38" cy="28.15" rx="7" ry="6.33"/>
    <circle class="cls-8" cx="37.72" cy="26.78" r="4.96"/>
    <circle class="cls-8" cx="3.6" cy="35.12" r="3.1"/>
    <circle class="cls-8" cx="13.98" cy="40.98" r="1.74"/>
    <circle class="cls-8" cx="9.97" cy="51.91" r="2.27"/>
  </g>
</svg>
