<svg id="Layer_1" data-name="Layer 1" xmlns="http://www.w3.org/2000/svg" width="115" height="180.48" viewBox="0 0 115 120.54">
  <defs>
    <style>
      .cls-1, .cls-4 {
        fill: #231f20;
      }

      .cls-1 {
        stroke: #231f20;
      }

      .cls-1, .cls-5 {
        stroke-miterlimit: 10;
      }

      .cls-2 {
        fill: #f2c1da;
      }

      .cls-3, .cls-5 {
        fill: #fff;
      }

      .cls-5 {
        stroke: #fff;
        stroke-width: 2px;
      }
    </style>
  </defs>
  <g id="Happy">
    <ellipse class="cls-1" cx="57.5" cy="66.54" rx="57" ry="53.5"/>
    <circle class="cls-2" cx="87.37" cy="86.8" r="7.13"/>
    <circle class="cls-2" cx="27.97" cy="85.57" r="6.93"/>
    <circle class="cls-3" cx="29.5" cy="53.88" r="14.05"/>
    <ellipse class="cls-4" cx="30.1" cy="54.88" rx="8.49" ry="8.71"/>
    <ellipse class="cls-3" cx="25.39" cy="48.05" rx="3.78" ry="3.83"/>
    <ellipse class="cls-3" cx="36.76" cy="57.4" rx="2.55" ry="2.52"/>
    <circle class="cls-3" cx="86.1" cy="53.88" r="14.05"/>
    <ellipse class="cls-4" cx="86.71" cy="54.88" rx="8.49" ry="8.71"/>
    <ellipse class="cls-3" cx="82" cy="48.05" rx="3.78" ry="3.83"/>
    <ellipse class="cls-3" cx="93.36" cy="57.4" rx="2.55" ry="2.52"/>
    <path class="cls-4" d="M84.42,21.78c-1.11.56-2.77-1.14-6.1-4.54C73.56,12.39,70.19,9,70.94,5.5S76.56-.89,80,.26C86.62,2.52,87.46,20.25,84.42,21.78Z"/>
    <path class="cls-4" d="M84.09,21.93c-1.11-.56-.7-2.93.13-7.65,1.18-6.74,2-11.51,5.29-13s8.55.73,9.6,4.16C101.19,12.2,87.13,23.47,84.09,21.93Z"/>
    <path class="cls-5" d="M45.35,93.94a11.88,11.88,0,0,0,23.4,0"/>
  </g>
</svg>
