<svg id="HurtExpression" xmlns="http://www.w3.org/2000/svg" width="115" height="180.48" viewBox="0 0 192.44 198.87">
  <defs>
    <style>
      .cls-1, .cls-3 {
        fill: #231f20;
      }

      .cls-1, .cls-2 {
        stroke: #231f20;
      }

      .cls-1, .cls-2, .cls-5, .cls-6 {
        stroke-miterlimit: 10;
      }

      .cls-2 {
        fill: #f1f2f2;
      }

      .cls-4, .cls-6 {
        fill: #fff;
      }

      .cls-5 {
        fill: none;
      }

      .cls-5, .cls-6 {
        stroke: #fff;
        stroke-width: 0.5px;
      }
    </style>
  </defs>
  <g id="Hurt">
    <ellipse class="cls-1" cx="96.22" cy="108.53" rx="95.72" ry="89.84"/>
    <circle class="cls-2" cx="132.35" cy="97.8" r="23.59"/>
    <circle class="cls-2" cx="131.8" cy="100.01" r="10.57"/>
    <g>
      <path class="cls-3" d="M148.8,36.57c-1.86.94-4.66-1.91-10.25-7.62-8-8.14-13.65-13.91-12.4-19.72S135.59-1.5,141.29.43C152.49,4.23,153.89,34,148.8,36.57Z"/>
      <path class="cls-3" d="M148.24,36.82c-1.86-.94-1.17-4.91.22-12.84,2-11.32,3.38-19.33,8.88-21.8s14.36,1.22,16.13,7C177,20.48,153.35,39.41,148.24,36.82Z"/>
    </g>
    <g>
      <g>
        <path class="cls-4" d="M55.94,104.06c-2.07.82-5.25-1.79-8.32-4.31C46.71,99,34.1,88.43,38.48,81.36c1.84-3,6.62-5.24,10.44-4.33C58.61,79.35,61.05,102,55.94,104.06Z"/>
        <path class="cls-4" d="M55.55,104.06c-2-.75-1.93-4.46-1.87-8,0-1.06.44-15.91,8.93-17.81,3.57-.79,8.47.72,10.19,3.71C77.15,89.52,60.46,105.94,55.55,104.06Z"/>
      </g>
      <g>
        <path class="cls-4" d="M56,90.91c2-.92,5.33,1.54,8.51,3.91.94.71,14,10.69,10,18-1.7,3-6.38,5.55-10.23,4.81C54.46,115.71,51,93.17,56,90.91Z"/>
        <path class="cls-4" d="M56.37,90.88c2,.67,2.13,4.37,2.24,8,0,1.06.3,15.91-8.1,18.2-3.53,1-8.49-.31-10.34-3.22C35.47,106.42,51.37,89.24,56.37,90.88Z"/>
      </g>
    </g>
    <circle class="cls-3" cx="131.8" cy="100.01" r="5.42"/>
    <circle class="cls-3" cx="146.98" cy="79.64" r="5.42"/>
    <circle class="cls-3" cx="154.92" cy="107.75" r="5.42"/>
    <path class="cls-5" d="M116.61,118.15a26.05,26.05,0,0,0,30.37,0"/>
    <path class="cls-6" d="M73.51,170a32.22,32.22,0,0,1,18.94-8.83c14-1.37,23.69,7.43,25.18,8.83"/>
    <line class="cls-6" x1="73.51" y1="169.98" x2="117.63" y2="169.98"/>
  </g>
</svg>
