<svg id="Layer_1" data-name="Layer 1" xmlns="http://www.w3.org/2000/svg" width="115" height="180.48"  viewBox="0 0 115 121.4">
  <defs>
    <style>
      .cls-1, .cls-2 {
        fill: #231f20;
      }

      .cls-1, .cls-3 {
        stroke: #231f20;
      }

      .cls-1, .cls-3, .cls-5, .cls-6, .cls-7 {
        stroke-miterlimit: 10;
      }

      .cls-3, .cls-5 {
        fill: #fff;
      }

      .cls-4 {
        fill: #f2c1da;
      }

      .cls-5, .cls-7 {
        stroke: #fff;
      }

      .cls-6, .cls-7 {
        fill: none;
      }

      .cls-6 {
        stroke: #f2c1da;
        stroke-width: 0.5px;
      }
    </style>
  </defs>
  <g id="InLove">
    <ellipse class="cls-1" cx="57.5" cy="67.4" rx="57" ry="53.5"/>
    <g>
      <path class="cls-2" d="M84.13,21.78c-1.1.56-2.77-1.14-6.1-4.54C73.27,12.39,69.9,9,70.65,5.5s5.62-6.39,9-5.24C86.33,2.52,87.17,20.25,84.13,21.78Z"/>
      <path class="cls-2" d="M83.8,21.93c-1.11-.56-.69-2.93.13-7.65,1.18-6.74,2-11.51,5.29-13s8.55.73,9.61,4.16C100.9,12.2,86.84,23.47,83.8,21.93Z"/>
    </g>
    <circle class="cls-3" cx="31.91" cy="56.27" r="16.19"/>
    <circle class="cls-2" cx="31.91" cy="59.51" r="13.38"/>
    <g>
      <path class="cls-4" d="M32.21,66.22c-1,.41-2.61-.89-4.13-2.13-.45-.37-6.7-5.62-4.53-9.12a5.26,5.26,0,0,1,5.18-2.15C33.53,54,34.74,65.21,32.21,66.22Z"/>
      <path class="cls-4" d="M32,66.22c-1-.37-.95-2.21-.92-4,0-.53.21-7.89,4.43-8.83,1.77-.4,4.2.35,5,1.83C42.72,59,34.45,67.15,32,66.22Z"/>
    </g>
    <circle class="cls-5" cx="25.22" cy="47.81" r="3.08"/>
    <ellipse class="cls-5" cx="41.55" cy="65.33" rx="2.61" ry="2.43" transform="translate(-35.25 55.52) rotate(-50.27)"/>
    <circle class="cls-3" cx="83.82" cy="56.05" r="16.19"/>
    <circle class="cls-2" cx="83.82" cy="59.29" r="13.38"/>
    <g>
      <path class="cls-4" d="M84.12,66c-1,.4-2.6-.89-4.12-2.14-.45-.37-6.7-5.61-4.53-9.12a5.26,5.26,0,0,1,5.17-2.15C85.45,53.76,86.66,65,84.12,66Z"/>
      <path class="cls-4" d="M83.93,66c-1-.38-1-2.21-.93-4,0-.52.22-7.89,4.43-8.83,1.77-.39,4.2.36,5,1.84C94.64,58.8,86.37,66.94,83.93,66Z"/>
    </g>
    <circle class="cls-5" cx="77.14" cy="47.6" r="3.08"/>
    <ellipse class="cls-5" cx="93.46" cy="65.11" rx="2.61" ry="2.43" transform="translate(-16.35 95.37) rotate(-50.27)"/>
    <line class="cls-6" x1="19.25" y1="85.57" x2="32.78" y2="77.76"/>
    <line class="cls-6" x1="24.31" y1="85.57" x2="37.84" y2="77.76"/>
    <line class="cls-6" x1="78.02" y1="85.42" x2="91.56" y2="77.61"/>
    <line class="cls-6" x1="73.45" y1="85.42" x2="86.98" y2="77.61"/>
    <line class="cls-6" x1="67.63" y1="85.42" x2="81.17" y2="77.61"/>
    <line class="cls-6" x1="14.76" y1="85.42" x2="28.3" y2="77.61"/>
    <path class="cls-7" d="M44.59,96.94c.29.48,4.52,7.06,12.57,7.23,8.49.19,13-6.9,13.25-7.23"/>
  </g>
</svg>
