<svg id="Layer_1" data-name="Layer 1" xmlns="http://www.w3.org/2000/svg" width="115" height="180.48" viewBox="0 0 115 118.68">
  <defs>
    <style>
      .cls-1, .cls-3 {
        fill: #231f20;
      }

      .cls-1, .cls-2 {
        stroke: #231f20;
        stroke-miterlimit: 10;
      }

      .cls-2, .cls-4 {
        fill: #fff;
      }

      .cls-5 {
        fill: #dbf1fc;
      }
    </style>
  </defs>
  <g id="Sleepy">
    <ellipse class="cls-1" cx="57.5" cy="64.68" rx="57" ry="53.5"/>
    <circle class="cls-2" cx="32.36" cy="61.18" r="17"/>
    <circle class="cls-3" cx="32.36" cy="61.18" r="13.36"/>
    <path class="cls-4" d="M45.47,56.87c-.81,1.25-4.88,1.28-13,1.29-8.26,0-12.4,0-13.25-1.29C17.62,54.36,24.12,47,32.36,47S47.11,54.36,45.47,56.87Z"/>
    <circle class="cls-4" cx="27.44" cy="68.23" r="2.35"/>
    <path class="cls-4" d="M38.22,65c.05,1-.47,2.33-1.44,2.52s-2.35-1-2.35-2.35,1.29-2.56,2.35-2.35C37.68,63,38.17,64.16,38.22,65Z"/>
    <circle class="cls-4" cx="57.5" cy="97.32" r="7.37"/>
    <circle class="cls-4" cx="35.39" cy="73.57" r="3.43"/>
    <circle class="cls-2" cx="83.72" cy="61.18" r="17"/>
    <circle class="cls-3" cx="83.72" cy="61.18" r="13.36"/>
    <path class="cls-4" d="M96.83,56.87c-.82,1.25-4.88,1.28-13,1.29-8.27,0-12.4,0-13.25-1.29C69,54.36,75.47,47,83.72,47S98.46,54.36,96.83,56.87Z"/>
    <circle class="cls-4" cx="78.8" cy="68.23" r="2.35"/>
    <path class="cls-4" d="M89.58,65c0,1-.47,2.33-1.44,2.52s-2.35-1-2.35-2.35,1.28-2.56,2.35-2.35C89,63,89.53,64.16,89.58,65Z"/>
    <circle class="cls-4" cx="86.75" cy="73.57" r="3.43"/>
    <g>
      <path class="cls-3" d="M88.92,21.78c-1.1.56-2.77-1.14-6.1-4.54C78.06,12.39,74.69,9,75.44,5.5s5.62-6.39,9-5.24C91.12,2.52,92,20.25,88.92,21.78Z"/>
      <path class="cls-3" d="M88.59,21.93c-1.11-.56-.69-2.93.13-7.65,1.18-6.74,2-11.51,5.29-13s8.55.73,9.61,4.16C105.69,12.2,91.63,23.47,88.59,21.93Z"/>
    </g>
    <circle class="cls-5" cx="49.36" cy="99.65" r="5.03"/>
    <circle class="cls-5" cx="32.36" cy="30.73" r="4.3"/>
    <circle class="cls-5" cx="15.36" cy="18.83" r="3.76"/>
    <circle class="cls-5" cx="6.58" cy="37.74" r="3.7"/>
  </g>
</svg>
