<svg id="Layer_1" data-name="Layer 1" xmlns="http://www.w3.org/2000/svg" width="115" height="180.48" viewBox="0 0 115 120.74">
  <defs>
    <style>
      .cls-1, .cls-3 {
        fill: #231f20;
      }

      .cls-1, .cls-2 {
        stroke: #231f20;
      }

      .cls-1, .cls-2, .cls-7, .cls-8, .cls-9 {
        stroke-miterlimit: 10;
      }

      .cls-2 {
        fill: #f1f2f2;
      }

      .cls-4 {
        fill: #e593bf;
      }

      .cls-5 {
        fill: #f2c1da;
      }

      .cls-6, .cls-9 {
        fill: #fff;
      }

      .cls-7, .cls-8 {
        fill: none;
        stroke: #fff;
      }

      .cls-7 {
        stroke-width: 2px;
      }

      .cls-9 {
        stroke: #e593bf;
      }
    </style>
  </defs>
  <g>
    <ellipse class="cls-1" cx="57.5" cy="66.74" rx="57" ry="53.5"/>
    <ellipse class="cls-2" cx="33.5" cy="66.24" rx="17" ry="20"/>
    <ellipse class="cls-2" cx="81.97" cy="66.31" rx="17" ry="20"/>
    <circle class="cls-3" cx="33.56" cy="71.8" r="14.26"/>
    <path class="cls-4" d="M23,76.74a14.32,14.32,0,0,1,23.57-10.9A14.3,14.3,0,1,0,24.35,82.72,14.08,14.08,0,0,1,23,76.74Z"/>
    <path class="cls-5" d="M24.17,78.19a14.26,14.26,0,0,1,14.2-14.33,14,14,0,0,1,9.17,3.4,14.22,14.22,0,1,0-22,16.93A14.28,14.28,0,0,1,24.17,78.19Z"/>
    <ellipse class="cls-6" cx="40.64" cy="68.35" rx="7.27" ry="5.91"/>
    <ellipse class="cls-6" cx="27.35" cy="81.7" rx="3.73" ry="3.6"/>
    <ellipse class="cls-6" cx="34.69" cy="81.29" rx="1.87" ry="1.8"/>
    <circle class="cls-3" cx="82.28" cy="72.96" r="14.26"/>
    <path class="cls-4" d="M71.74,77.9A14.32,14.32,0,0,1,95.31,67,14.3,14.3,0,1,0,73.07,83.88,14.08,14.08,0,0,1,71.74,77.9Z"/>
    <path class="cls-5" d="M72.89,79.35A14.26,14.26,0,0,1,87.09,65a14.07,14.07,0,0,1,9.17,3.4,14.17,14.17,0,0,0-27.08,6,14.34,14.34,0,0,0,5,10.93A14.43,14.43,0,0,1,72.89,79.35Z"/>
    <ellipse class="cls-6" cx="89.36" cy="69.51" rx="7.27" ry="5.91"/>
    <ellipse class="cls-6" cx="76.07" cy="82.86" rx="3.73" ry="3.6"/>
    <ellipse class="cls-6" cx="83.41" cy="82.45" rx="1.87" ry="1.8"/>
    <line class="cls-7" x1="15.06" y1="44.42" x2="40.31" y2="38.02"/>
    <line class="cls-7" x1="77.35" y1="37" x2="100.11" y2="47.67"/>
    <path class="cls-3" d="M84.62,21.78c-1.1.56-2.77-1.14-6.1-4.54C73.76,12.39,70.39,9,71.14,5.5s5.62-6.39,9-5.24C86.82,2.52,87.66,20.25,84.62,21.78Z"/>
    <path class="cls-3" d="M84.29,21.93c-1.11-.56-.69-2.93.13-7.65,1.18-6.74,2-11.51,5.29-13s8.55.73,9.61,4.16C101.39,12.2,87.33,23.47,84.29,21.93Z"/>
    <path class="cls-8" d="M46.59,101.45a20.19,20.19,0,0,0,3.66.52c3.24.16,4.24-.57,7.38-.74s3.43.5,7.53.59a37.88,37.88,0,0,0,6.23-.37"/>
  </g>
  <g>
    <ellipse class="cls-1" cx="57.5" cy="67.05" rx="57" ry="53.5"/>
    <ellipse class="cls-9" cx="30.15" cy="60.2" rx="16.21" ry="15.37"/>
    <rect class="cls-2" x="49.45" y="92.07" width="15.77" height="15.77" rx="7.89"/>
    <circle class="cls-3" cx="30.15" cy="60.2" r="9.95"/>
    <ellipse class="cls-6" cx="26.62" cy="54.42" rx="5.53" ry="5.57"/>
    <ellipse class="cls-6" cx="38.7" cy="59.59" rx="2.83" ry="2.5"/>
    <ellipse class="cls-9" cx="84.9" cy="61.48" rx="16.21" ry="15.37"/>
    <circle class="cls-3" cx="84.9" cy="61.48" r="9.95"/>
    <ellipse class="cls-6" cx="81.37" cy="55.7" rx="5.53" ry="5.57"/>
    <ellipse class="cls-6" cx="93.45" cy="60.87" rx="2.83" ry="2.5"/>
    <path class="cls-3" d="M80.71,21.48c-1.1.55-2.77-1.15-6.1-4.54-4.76-4.85-8.12-8.28-7.38-11.75s5.62-6.39,9-5.24C82.91,2.21,83.75,20,80.71,21.48Z"/>
    <path class="cls-3" d="M80.38,21.62c-1.1-.56-.69-2.92.13-7.64,1.18-6.74,2-11.52,5.3-13s8.55.72,9.6,4.15C97.48,11.89,83.43,23.16,80.38,21.62Z"/>
  </g>
</svg>
